<svg viewBox="0 0 371 445">
  <path d="M248.907 391.108c3.546-16.61 11.53-30.526 20.334-30.526 3.132 0 5.944 1.07 8.407 2.874 8.823 6.648 12.295 22.413 8.112 28.223-4.313 6.225-15.687 8.515-22.735 8.998l-.973.07-.12.997c-1.614 13.323-1.43 27.687 6.024 30.055 14.37 4.393 33.32-43.012 35.102-49.21.023-.08.047-.153.073-.225 1.122-6.553 7.016-9.204 11.578-8.66 3.275.387 5.36 2.256 4.98 5.23-1.403 8.876-4.772 22.786-4.02 29.806l.657 6.14 1.652-5.952c2.312-8.328 6.02-15.05 9.258-19.68 2.78-3.543 9.662-5.12 13.287-3.81 1.896.683 2.793 1.852 1.893 4.35-1.225 3.263-1.902 10.494-1.908 16.846-.004 5.02-.043 11.896 3.25 11.896 5.414 0 14.39-16.537 16.943-24.67l.01-.03.008-.026c.56-2.142 2.275-2.782 3.684-2.456 1.293.302 2.363 1.36 1.816 3.54-1.89 8.512-14.998 32.852-24.348 32.852-16.705 0-11.88-21.043-13.527-25.66l-.422-1.183-1.153.497c-4.443 1.902-8.043 18.07-8.973 25.736-.377 3.204-4.236 5.293-8.375 5.146-3.776-.136-6.692-2.025-6.51-5.647.372-5.597-.196-14.038-.514-22.538-6.595 16.293-18.31 36.53-35.988 36.53-13.115 0-18.957-13.075-19.41-29.5-5.957 10.868-15.65 22.12-30.048 21.47-11.978-.577-17.778-9.496-19.114-20.978-6.856 13.956-17.965 29.007-33.948 29.007-7.228 0-12.246-3.967-15.37-10.277-2.574 2.94-5.802 4.33-9.804 3.18-4.66-1.375-7.415-4.022-9.174-7.884l-1.24-2.723-.944 2.843c-2.544 7.65-6.635 14.09-13.003 16.824-3.14 1.12-5.704 1.302-7.994.676-10.015-2.878-15.54-16.03-16.21-30.71-4.805 9.547-11.22 18.912-17.39 20.043-2.1.587-3.73.467-5.022-.13-10.42-3.628-6.166-34.076-4.1-40.954l.808-3.29-2.316 1.146c-3.8 1.974-13.578 25.685-15.36 30.95l-.025.064-.016-.065c-.358 1.745-3.738 5.57-6.77 6.752-2.074 1.142-3.22.61-3.69-2.023-1.954-6.353-.19-23.22-1.142-25.92l-.46-1.228-1.174.587c-3.95 1.986-9.38 23.478-10.56 31.298-.39 3.976-4.457 6.48-8.652 6.153-3.597-.28-6.264-2.46-5.996-6.723.48-11.155-2.562-38.647-.49-51.17 1.71-9.703 11.3-13.688 15.81-12.596 1.697.52 2.254 1.503 1.945 3.36-1.916 8.94-5.23 33.04-4.982 39.985l.28 8.12 2.04-7.856c2.31-8.8 7.978-20.46 11.356-24.865l.017-.023.016.022c2.528-4.063 8.902-5.87 12.28-4.442 1.755.78 2.6 2.133 1.755 5.037-.776 2.277-1.386 8.282-1.832 14.9l-.466 6.723 2.575-6.152c3.672-9.013 12.278-22.606 14.9-26.69 2.16-3.553 7.18-5.804 11.16-5.378 3.105.362 5.06 2.152 4.71 6.34-.38 5.168-6.188 34.11-6.21 43.92-.003 1.72-.245 5.41 1.957 5.41 4.974 0 13.77-21.132 17.23-31.63.31-1.137.648-2.25 1.017-3.334.147-.624.276-.976.405-1.14 4.488-12.215 12.964-20.53 25.044-18.225 3.972.865 7.08 4.195 9.117 7.94l.797 1.468 1.1-1.24c1.61-1.813 3.982-2.44 6.397-2.078 4.163.63 5.518 4.062 4.925 8.364-1.397 7.084-2.938 19.076-2.943 27.953 0 5.643 1.168 16.272 4.105 12.025 2.734-3.95.077-4.183 2.414-21.4 1.68-21.12 11.23-41.98 22.01-41.98 3.13 0 5.94 1.07 8.406 2.874 8.822 6.648 12.295 22.413 8.113 28.223-4.315 6.225-15.69 8.515-22.738 8.998l-.97.07-.122.997c-1.615 13.323-1.43 27.687 6.026 30.055 13.496 4.126 31.036-32.63 34.592-42.247 3.758-12.51 11.323-22.596 19.7-22.596 10.97 0 16.748 11.207 15.585 25.156-.766 8.116-7.637 11.752-10.69 11.213-1.108-.197-1.702-.72-1.38-2.383l.008-.03.005-.026c.535-3.75 2.73-16.646 2.186-22.736-.144-1.65-.718-4.075-2.604-3.89-3.662.46-6.025 7.086-8.047 14.283-3.583 12.75-6.005 32.58 3.67 35.268 16.37 4.68 28.255-26.184 30.253-32.175.057-.187.122-.363.194-.527zm-134.553 51.477c-.008.005-.017.01-.026.013l.055-.02c-.01.003-.02.007-.03.007zm11.986-48.143c-.68-4.972-2.13-12.42-6.648-13.07-8.514-1.594-13.436 10.958-15.343 22.907-2.135 13.378-1.26 30.12 6.728 31.37 9.894 1.166 16.882-24.074 15.262-41.208zm145.25-25.022c-3.134 1.394-5.655 9.923-7.753 19.72l-.305 1.43h1.457c3.6 0 7.882-.633 9.933-3.567 2.434-3.317 1.61-11.848-.03-15.55-.453-1.018-1.53-2.838-3.302-2.033zm-102.52 0c-3.134 1.394-5.655 9.923-7.753 19.72l-.307 1.43h1.46c3.597 0 7.878-.633 9.93-3.567 2.437-3.317 1.61-11.848-.03-15.55-.45-1.018-1.527-2.838-3.3-2.033zm158.165 21.01a.12.12 0 0 1 .018-.027l-.033.048c.004-.008.01-.012.015-.02zm18.777-157.37c1.357 7.066 2.714 14.398 4.075 22 1.357 7.608 2.038 14.535 2.038 20.78 0 3.26-.548 6.654-1.63 10.186-1.09 3.528-2.516 6.725-4.278 9.576-1.77 2.852-3.808 5.228-6.11 7.13-2.313 1.897-4.827 2.852-7.54 2.852-3.533 0-6.72-2.24-9.574-6.722-2.852-4.48-5.234-10.39-7.13-17.725-1.905-7.333-3.533-15.545-4.89-24.65a459.48 459.48 0 0 1-3.26-27.503c-.815-9.23-1.36-17.99-1.63-26.28-.272-8.28-.408-15.278-.408-20.983 0-12.762.95-26.547 2.854-41.354 1.895-14.8 2.983-28.725 3.258-41.764-5.437 7.067-11.345 16.91-17.725 29.542a6771.06 6771.06 0 0 1-20.78 40.745 2432.086 2432.086 0 0 1-23.428 44.41c-8.148 15.075-16.57 28.794-25.262 41.152-8.696 12.364-17.724 22.408-27.095 30.152-9.37 7.74-18.812 11.61-28.317 11.61-5.163 0-9.918-1.09-14.26-3.26a60.063 60.063 0 0 1-12.223-8.147c-3.808-3.26-7.334-6.928-10.594-11-3.26-4.077-6.252-8.01-8.964-11.818-9.78-13.307-18.883-27.362-27.3-42.172-8.422-14.8-15.89-29.4-22.41-43.8-.814 11.14-1.087 19.423-.814 24.855.268 5.435.407 10.185.407 14.26 0 12.497-.885 24.995-2.647 37.485-1.77 12.498-5.774 24.308-12.02 35.447-4.35 7.876-11 11.816-19.965 11.816-1.362 0-3.055-.14-5.092-.406-2.037-.273-3.94-.816-5.705-1.63-1.77-.816-3.33-1.833-4.685-3.058-1.363-1.22-2.038-2.788-2.038-4.684.542-5.164 1.427-10.054 2.65-14.668a314.22 314.22 0 0 1 3.87-13.447c2.713-8.15 5.227-16.91 7.538-26.28a599.782 599.782 0 0 0 6.315-28.724 711.4 711.4 0 0 0 5.093-29.54c1.49-9.913 2.648-19.486 3.463-28.724 0-1.9.062-3.802.203-5.707.133-1.898.745-3.8 1.833-5.703-2.444-7.876-6.455-16.158-12.02-24.854-5.57-8.69-11.273-16.91-17.112-24.65A3350.58 3350.58 0 0 0 7.22 67.433C2.74 61.595.36 57.723.09 55.823c-.273-1.083.064-1.696 1.02-1.836.948-.133 2.037-.133 3.26 0 1.222.14 2.445.478 3.667 1.02 1.223.547 1.968.815 2.24.815C21.14 62.89 30.855 71.374 39.412 81.287c8.557 9.918 16.77 21.185 24.65 33.817 7.876 12.63 15.75 26.625 23.632 41.966 7.875 15.35 16.706 31.985 26.484 49.913v-.408a3351.35 3351.35 0 0 0 9.575 17.114 190.28 190.28 0 0 0 12.02 18.74c4.343 5.978 8.824 11 13.446 15.076 4.616 4.073 9.37 6.11 14.26 6.11 4.89-.267 10.66-4.41 17.318-12.426 6.653-8.01 13.65-18.06 20.983-30.15 7.334-12.085 14.732-25.263 22.206-39.523a7221.822 7221.822 0 0 1 21.39-40.542c2.987-5.97 7.063-13.58 12.225-22.817 5.157-9.23 11-19.08 17.52-29.54A602.685 602.685 0 0 1 296.1 57.246c7.47-10.453 15.14-19.963 23.02-28.52 7.875-8.557 15.752-15.484 23.632-20.78C350.628 2.65 358.097 0 365.162 0c1.358 0 2.508.408 3.464 1.222.95.816 1.427 2.178 1.427 4.076 0 2.99-.75 6.048-2.243 9.168a192.54 192.54 0 0 1-4.684 9.166c-3.808 5.978-7.944 12.632-12.428 19.965-4.48 7.335-11.205 16.846-20.168 28.522.54 14.94 1.284 30.085 2.24 45.428.95 15.35 2.038 30.152 3.26 44.412 1.222 14.26 2.648 27.503 4.278 39.726 1.63 12.224 3.526 22.683 5.704 31.373z"/>
</svg>
